<mxfile host="app.diagrams.net" modified="2024-02-25T16:03:42.943Z" agent="Mozilla/5.0 (Windows NT 10.0; Win64; x64) AppleWebKit/537.36 (KHTML, like Gecko) Chrome/122.0.0.0 Safari/537.36" etag="oJBxYHlYGf6aavhjqjUA" version="22.1.18" type="google">
  <diagram name="Page-1" id="qd4K68mjo8Kun1ON4pCY">
    <mxGraphModel dx="1687" dy="878" grid="1" gridSize="10" guides="1" tooltips="1" connect="1" arrows="1" fold="1" page="1" pageScale="1" pageWidth="850" pageHeight="1100" math="0" shadow="0">
      <root>
        <mxCell id="0" />
        <mxCell id="1" parent="0" />
        <mxCell id="C9GThzhM6XO5aighroy3-26" value="" style="rounded=0;whiteSpace=wrap;html=1;fontSize=8;fillColor=#a6a8a4;" vertex="1" parent="1">
          <mxGeometry x="285" y="30" width="280" height="960" as="geometry" />
        </mxCell>
        <mxCell id="C9GThzhM6XO5aighroy3-27" style="edgeStyle=orthogonalEdgeStyle;rounded=0;orthogonalLoop=1;jettySize=auto;html=1;exitX=0.5;exitY=0.5;exitDx=0;exitDy=0;exitPerimeter=0;" edge="1" parent="1" source="C9GThzhM6XO5aighroy3-1">
          <mxGeometry relative="1" as="geometry">
            <mxPoint x="150" y="249.73684210526312" as="targetPoint" />
          </mxGeometry>
        </mxCell>
        <mxCell id="C9GThzhM6XO5aighroy3-1" value="User" style="shape=umlActor;verticalLabelPosition=bottom;verticalAlign=top;html=1;outlineConnect=0;" vertex="1" parent="1">
          <mxGeometry x="140" y="220" width="30" height="60" as="geometry" />
        </mxCell>
        <mxCell id="C9GThzhM6XO5aighroy3-2" value="Admin" style="shape=umlActor;verticalLabelPosition=bottom;verticalAlign=top;html=1;outlineConnect=0;" vertex="1" parent="1">
          <mxGeometry x="140" y="740" width="30" height="60" as="geometry" />
        </mxCell>
        <mxCell id="C9GThzhM6XO5aighroy3-3" value="Payment&amp;nbsp;&lt;br&gt;Gateway" style="shape=umlActor;verticalLabelPosition=bottom;verticalAlign=top;html=1;outlineConnect=0;" vertex="1" parent="1">
          <mxGeometry x="700" y="210" width="30" height="60" as="geometry" />
        </mxCell>
        <mxCell id="C9GThzhM6XO5aighroy3-4" value="Process Payment" style="ellipse;whiteSpace=wrap;html=1;" vertex="1" parent="1">
          <mxGeometry x="368" y="130" width="114.29" height="50" as="geometry" />
        </mxCell>
        <mxCell id="C9GThzhM6XO5aighroy3-5" value="Search For Service" style="ellipse;whiteSpace=wrap;html=1;" vertex="1" parent="1">
          <mxGeometry x="368" y="195" width="114.29" height="50" as="geometry" />
        </mxCell>
        <mxCell id="C9GThzhM6XO5aighroy3-6" value="Select Service" style="ellipse;whiteSpace=wrap;html=1;" vertex="1" parent="1">
          <mxGeometry x="368" y="260" width="114.29" height="50" as="geometry" />
        </mxCell>
        <mxCell id="C9GThzhM6XO5aighroy3-7" value="Select Date / Time" style="ellipse;whiteSpace=wrap;html=1;" vertex="1" parent="1">
          <mxGeometry x="368" y="330" width="114.29" height="50" as="geometry" />
        </mxCell>
        <mxCell id="C9GThzhM6XO5aighroy3-8" value="Confirm Booking" style="ellipse;whiteSpace=wrap;html=1;" vertex="1" parent="1">
          <mxGeometry x="368" y="540" width="114.29" height="50" as="geometry" />
        </mxCell>
        <mxCell id="C9GThzhM6XO5aighroy3-9" value="Review Booking" style="ellipse;whiteSpace=wrap;html=1;" vertex="1" parent="1">
          <mxGeometry x="368" y="470" width="114.29" height="50" as="geometry" />
        </mxCell>
        <mxCell id="C9GThzhM6XO5aighroy3-10" value="Enter Personal info" style="ellipse;whiteSpace=wrap;html=1;" vertex="1" parent="1">
          <mxGeometry x="368" y="400" width="114.29" height="50" as="geometry" />
        </mxCell>
        <mxCell id="C9GThzhM6XO5aighroy3-11" value="View Bookings" style="ellipse;whiteSpace=wrap;html=1;" vertex="1" parent="1">
          <mxGeometry x="368" y="680" width="114.29" height="50" as="geometry" />
        </mxCell>
        <mxCell id="C9GThzhM6XO5aighroy3-12" value="Add/Delete Services" style="ellipse;whiteSpace=wrap;html=1;" vertex="1" parent="1">
          <mxGeometry x="368" y="750" width="114.29" height="50" as="geometry" />
        </mxCell>
        <mxCell id="C9GThzhM6XO5aighroy3-13" value="Add/Delete/edit availability" style="ellipse;whiteSpace=wrap;html=1;" vertex="1" parent="1">
          <mxGeometry x="368" y="820" width="114.29" height="50" as="geometry" />
        </mxCell>
        <mxCell id="C9GThzhM6XO5aighroy3-14" value="" style="endArrow=none;html=1;rounded=0;entryX=0.044;entryY=0.74;entryDx=0;entryDy=0;entryPerimeter=0;exitX=0.5;exitY=0.5;exitDx=0;exitDy=0;exitPerimeter=0;" edge="1" parent="1" source="C9GThzhM6XO5aighroy3-1" target="C9GThzhM6XO5aighroy3-4">
          <mxGeometry width="50" height="50" relative="1" as="geometry">
            <mxPoint x="300" y="390" as="sourcePoint" />
            <mxPoint x="350" y="340" as="targetPoint" />
          </mxGeometry>
        </mxCell>
        <mxCell id="C9GThzhM6XO5aighroy3-15" value="" style="endArrow=none;html=1;rounded=0;entryX=0;entryY=0.5;entryDx=0;entryDy=0;exitX=0.5;exitY=0.5;exitDx=0;exitDy=0;exitPerimeter=0;" edge="1" parent="1" source="C9GThzhM6XO5aighroy3-1" target="C9GThzhM6XO5aighroy3-5">
          <mxGeometry width="50" height="50" relative="1" as="geometry">
            <mxPoint x="170" y="255" as="sourcePoint" />
            <mxPoint x="383" y="177" as="targetPoint" />
          </mxGeometry>
        </mxCell>
        <mxCell id="C9GThzhM6XO5aighroy3-16" value="" style="endArrow=none;html=1;rounded=0;entryX=0;entryY=0.5;entryDx=0;entryDy=0;exitX=0.5;exitY=0.5;exitDx=0;exitDy=0;exitPerimeter=0;" edge="1" parent="1" source="C9GThzhM6XO5aighroy3-1" target="C9GThzhM6XO5aighroy3-6">
          <mxGeometry width="50" height="50" relative="1" as="geometry">
            <mxPoint x="180" y="265" as="sourcePoint" />
            <mxPoint x="378" y="230" as="targetPoint" />
          </mxGeometry>
        </mxCell>
        <mxCell id="C9GThzhM6XO5aighroy3-17" value="" style="endArrow=none;html=1;rounded=0;entryX=0;entryY=0.5;entryDx=0;entryDy=0;exitX=0.5;exitY=0.5;exitDx=0;exitDy=0;exitPerimeter=0;" edge="1" parent="1" source="C9GThzhM6XO5aighroy3-1" target="C9GThzhM6XO5aighroy3-7">
          <mxGeometry width="50" height="50" relative="1" as="geometry">
            <mxPoint x="190" y="275" as="sourcePoint" />
            <mxPoint x="378" y="295" as="targetPoint" />
          </mxGeometry>
        </mxCell>
        <mxCell id="C9GThzhM6XO5aighroy3-18" value="" style="endArrow=none;html=1;rounded=0;entryX=0;entryY=0.5;entryDx=0;entryDy=0;exitX=0.5;exitY=0.5;exitDx=0;exitDy=0;exitPerimeter=0;" edge="1" parent="1" source="C9GThzhM6XO5aighroy3-1" target="C9GThzhM6XO5aighroy3-10">
          <mxGeometry width="50" height="50" relative="1" as="geometry">
            <mxPoint x="200" y="285" as="sourcePoint" />
            <mxPoint x="378" y="365" as="targetPoint" />
          </mxGeometry>
        </mxCell>
        <mxCell id="C9GThzhM6XO5aighroy3-19" value="" style="endArrow=none;html=1;rounded=0;entryX=0;entryY=0.5;entryDx=0;entryDy=0;" edge="1" parent="1" source="C9GThzhM6XO5aighroy3-1" target="C9GThzhM6XO5aighroy3-9">
          <mxGeometry width="50" height="50" relative="1" as="geometry">
            <mxPoint x="160" y="250" as="sourcePoint" />
            <mxPoint x="378" y="435" as="targetPoint" />
          </mxGeometry>
        </mxCell>
        <mxCell id="C9GThzhM6XO5aighroy3-20" value="" style="endArrow=none;html=1;rounded=0;entryX=0;entryY=0.5;entryDx=0;entryDy=0;" edge="1" parent="1" source="C9GThzhM6XO5aighroy3-1" target="C9GThzhM6XO5aighroy3-8">
          <mxGeometry width="50" height="50" relative="1" as="geometry">
            <mxPoint x="220" y="305" as="sourcePoint" />
            <mxPoint x="378" y="505" as="targetPoint" />
          </mxGeometry>
        </mxCell>
        <mxCell id="C9GThzhM6XO5aighroy3-21" value="" style="endArrow=none;html=1;rounded=0;entryX=0;entryY=0.3333333333333333;entryDx=0;entryDy=0;entryPerimeter=0;exitX=1;exitY=0.5;exitDx=0;exitDy=0;" edge="1" parent="1" source="C9GThzhM6XO5aighroy3-4" target="C9GThzhM6XO5aighroy3-3">
          <mxGeometry width="50" height="50" relative="1" as="geometry">
            <mxPoint x="482.29" y="173" as="sourcePoint" />
            <mxPoint x="710.29" y="90" as="targetPoint" />
          </mxGeometry>
        </mxCell>
        <mxCell id="C9GThzhM6XO5aighroy3-22" value="" style="endArrow=none;html=1;rounded=0;exitX=0;exitY=0.5;exitDx=0;exitDy=0;" edge="1" parent="1" source="C9GThzhM6XO5aighroy3-11">
          <mxGeometry width="50" height="50" relative="1" as="geometry">
            <mxPoint x="50" y="570" as="sourcePoint" />
            <mxPoint x="180" y="760" as="targetPoint" />
          </mxGeometry>
        </mxCell>
        <mxCell id="C9GThzhM6XO5aighroy3-23" value="" style="endArrow=none;html=1;rounded=0;exitX=0;exitY=0.5;exitDx=0;exitDy=0;" edge="1" parent="1" source="C9GThzhM6XO5aighroy3-12">
          <mxGeometry width="50" height="50" relative="1" as="geometry">
            <mxPoint x="378" y="715" as="sourcePoint" />
            <mxPoint x="180" y="770" as="targetPoint" />
          </mxGeometry>
        </mxCell>
        <mxCell id="C9GThzhM6XO5aighroy3-24" value="" style="endArrow=none;html=1;rounded=0;exitX=0;exitY=0.5;exitDx=0;exitDy=0;" edge="1" parent="1" source="C9GThzhM6XO5aighroy3-13">
          <mxGeometry width="50" height="50" relative="1" as="geometry">
            <mxPoint x="378" y="785" as="sourcePoint" />
            <mxPoint x="180" y="780" as="targetPoint" />
          </mxGeometry>
        </mxCell>
      </root>
    </mxGraphModel>
  </diagram>
</mxfile>
